<svg width="892" height="400" viewBox="0 0 892 400" fill="none" xmlns="http://www.w3.org/2000/svg">
<path fill-rule="evenodd" clip-rule="evenodd" d="M714.86 239.537V235.19C714.86 234.453 714.265 233.856 713.528 233.856C712.793 233.856 712.195 234.453 712.195 235.19V239.538C712.13 239.578 712.066 239.62 712.004 239.666C710.947 240.424 710.694 241.89 711.435 242.959V244.485L708.894 266.505C708.888 266.556 708.885 266.607 708.885 266.659V268.637C708.447 268.928 708.055 269.283 707.726 269.695C707.72 269.703 707.713 269.714 707.705 269.723C707.31 270.243 707.018 270.836 706.849 271.47L706.559 271.682C706.246 271.896 705.94 272.126 705.646 272.37C705.206 272.736 705.051 273.343 705.258 273.876L705.469 274.415C705.576 274.693 705.774 274.924 706.029 275.076L706.151 275.15V284.944L705.125 285.103C704.475 285.204 703.995 285.763 703.995 286.421V289.462C703.995 289.717 704.069 289.97 704.209 290.182L704.771 291.055V294.77L704.614 295.826L704.434 296.117L704.252 296.406H702.397C701.661 296.406 701.064 297.003 701.064 297.739V303.678H699.537V211.224C699.537 210.49 698.94 209.893 698.205 209.893H696.753V195.224C696.753 194.886 696.62 194.557 696.388 194.309V193.944C696.388 193.714 696.328 193.483 696.211 193.281L688.164 179.229C687.945 178.847 687.547 178.596 687.106 178.563L663.816 176.805C663.3 176.768 662.81 177.03 662.556 177.479L654.766 191.262C654.53 191.51 654.397 191.839 654.397 192.184V209.893H652.626C652.273 209.893 651.935 210.033 651.683 210.283C651.435 210.532 651.295 210.872 651.295 211.224V253.579C651.041 253.263 650.658 253.079 650.252 253.079H649.04V243.067C649.04 242.331 648.444 241.735 647.708 241.735H646.148V233.136C646.148 232.401 645.551 231.805 644.815 231.805H643.677V223.829C643.677 223.093 643.081 222.496 642.345 222.496H640.605V209.527C640.605 208.792 640.009 208.196 639.274 208.196H625.939C625.204 208.196 624.607 208.792 624.607 209.527V222.496H622.868C622.132 222.496 621.534 223.093 621.534 223.829V231.805H620.393C620.04 231.805 619.701 231.944 619.451 232.195C619.201 232.443 619.06 232.783 619.06 233.136V241.735H617.503C616.766 241.735 616.17 242.331 616.17 243.067V253.079H614.961C614.607 253.079 614.269 253.218 614.018 253.469C613.769 253.72 613.627 254.057 613.627 254.411V265.405H610.572L607.411 107.416C607.397 106.691 606.805 106.109 606.08 106.109H600.714V70.5804C600.714 70.2268 600.573 69.887 600.325 69.6377C600.073 69.3874 599.736 69.2473 599.382 69.2473H566.146C565.41 69.2473 564.812 69.8443 564.812 70.5804V106.109H559.085C558.359 106.109 557.767 106.691 557.753 107.416L554.727 258.646H554.207V152.691C554.207 152.336 554.067 151.998 553.818 151.748C553.567 151.499 553.23 151.357 552.875 151.357H546.551V115.477C546.551 115.124 546.41 114.783 546.16 114.534C545.911 114.284 545.571 114.143 545.218 114.143H533.25V92.1373C533.25 91.7847 533.108 91.4439 532.859 91.1956C532.608 90.9453 532.27 90.8043 531.916 90.8043H529.579V56.2319C529.579 55.4959 528.981 54.8979 528.245 54.8979H520.576C520.223 54.8979 519.882 55.04 519.634 55.2893C519.383 55.5396 519.242 55.8784 519.242 56.2319V90.8043H517.612C516.876 90.8043 516.278 91.4022 516.278 92.1373V114.143H512.023C511.669 114.143 511.332 114.284 511.081 114.534C510.833 114.783 510.691 115.124 510.691 115.477V151.357H509.129C508.776 151.357 508.438 151.499 508.187 151.748C507.938 151.998 507.795 152.336 507.795 152.691V217.602H500.262C499.526 217.602 498.929 218.198 498.929 218.934V316.219H495.957V276.147H496.113C496.849 276.147 497.445 275.551 497.445 274.814V271.14C497.445 270.403 496.849 269.806 496.113 269.806H494.823V259.743L495.981 259.05C496.546 258.709 496.78 258.009 496.526 257.398C496.386 257.055 496.223 256.722 496.039 256.401C495.681 255.756 495.151 255.219 494.505 254.851V253.067C494.505 252.331 493.908 251.733 493.173 251.733H492.839C492.796 250.985 492.743 250.237 492.676 249.49C492.451 246.782 492.041 244.094 491.455 241.441C490.977 239.292 490.332 237.185 489.525 235.136C488.786 233.261 487.865 231.465 486.777 229.773L486.175 228.76V228.564H486.231C486.584 228.564 486.923 228.424 487.173 228.173C487.424 227.924 487.564 227.583 487.564 227.23V224.153C487.564 223.8 487.424 223.459 487.173 223.211C486.923 222.961 486.584 222.82 486.231 222.82H485.523C485.432 222.5 485.321 222.187 485.196 221.877L484.189 219.386C484.034 218.999 483.706 218.707 483.304 218.599V206.956C483.304 206.221 482.708 205.623 481.972 205.623C481.234 205.623 480.638 206.221 480.638 206.956V218.599C480.235 218.709 479.906 219.004 479.752 219.394C479.569 219.855 479.383 220.314 479.192 220.773C478.964 221.308 478.751 221.848 478.555 222.396C478.504 222.536 478.46 222.676 478.416 222.82H477.712C476.977 222.82 476.379 223.418 476.379 224.153V227.23C476.379 227.583 476.52 227.924 476.77 228.173C477.019 228.424 477.359 228.564 477.712 228.564H477.768V228.76L477.168 229.771C476.815 230.313 476.481 230.869 476.166 231.437V231.44L476.163 231.444C475.165 233.26 474.335 235.167 473.685 237.138C472.889 239.55 472.288 242.022 471.885 244.532C471.499 246.916 471.237 249.321 471.1 251.733H470.771C470.033 251.733 469.437 252.331 469.437 253.067V254.854C468.793 255.219 468.262 255.756 467.903 256.404C467.72 256.725 467.557 257.057 467.417 257.399C467.149 258.05 467.433 258.795 468.065 259.103L469.122 259.622V269.806H467.828C467.093 269.806 466.497 270.403 466.497 271.14V274.814C466.497 275.167 466.638 275.508 466.889 275.755C467.137 276.007 467.478 276.147 467.828 276.147H467.986V301.772H464.3V245.245C464.3 244.509 463.704 243.912 462.968 243.912H456.588V236.128C456.588 235.393 455.991 234.795 455.257 234.795H437.361V180.495L440.073 177.298C440.408 176.904 440.485 176.347 440.266 175.878C440.046 175.405 439.575 175.104 439.056 175.104H429.72V168.659L431.1 166.892C431.413 166.491 431.469 165.944 431.246 165.487C431.022 165.031 430.558 164.739 430.049 164.739H425.833L412.507 140.433C412.357 139.83 411.81 139.411 411.189 139.423C410.569 139.411 410.022 139.83 409.871 140.433L396.542 164.739H392.315C391.806 164.739 391.341 165.029 391.117 165.487C390.893 165.944 390.95 166.491 391.263 166.891L392.688 168.72V175.104H382.633C382.113 175.104 381.641 175.405 381.424 175.878C381.207 176.347 381.282 176.904 381.616 177.3L384.668 180.892V250.012H381.657V245.05C381.657 244.317 381.061 243.719 380.326 243.719H379.204V221.477C379.204 220.741 378.608 220.144 377.87 220.144H377.596V212.447C377.596 212.095 377.457 211.754 377.208 211.506C376.956 211.255 376.617 211.114 376.265 211.114H349.797C349.443 211.114 349.106 211.255 348.855 211.506C348.606 211.754 348.464 212.095 348.464 212.447V220.144H348.184C347.447 220.144 346.851 220.741 346.851 221.477V243.719H345.73C345.377 243.719 345.039 243.86 344.788 244.108C344.54 244.359 344.399 244.696 344.399 245.05V250.408H337.74C337.004 250.408 336.407 251.005 336.407 251.739V282.839H332.237V170.778C332.237 170.424 332.096 170.085 331.846 169.835L325.258 163.26V157.276C325.258 156.895 325.096 156.537 324.817 156.283L320.245 152.167V145.472C320.245 145.111 320.097 144.765 319.839 144.515L315.907 140.708V133.829C315.907 133.452 315.748 133.095 315.473 132.843L308.133 126.157L305.735 74.6748C305.702 73.9636 305.115 73.4044 304.404 73.4044C303.689 73.4044 303.104 73.9636 303.072 74.6748L300.672 126.157L293.334 132.843C293.056 133.095 292.898 133.452 292.898 133.829V140.708L288.967 144.515C288.708 144.765 288.562 145.111 288.562 145.472V152.167L283.99 156.283C283.708 156.537 283.549 156.895 283.549 157.276V163.26L276.957 169.835C276.707 170.085 276.567 170.424 276.567 170.778V193.32C276.567 193.353 276.567 193.386 276.571 193.419V263.325H273.137V216.987C273.137 216.899 273.129 216.81 273.11 216.723L273.137 208.532C273.137 208.093 272.921 207.68 272.559 207.43C272.197 207.181 271.736 207.127 271.326 207.282L258.195 212.308C258.182 207.585 258.15 202.86 258.103 198.134C258.045 191.606 257.949 185.078 257.816 178.552C257.568 166.155 257.11 153.763 256.443 141.383C256.419 140.911 256.144 140.489 255.726 140.271C254.202 139.479 252.613 138.817 250.978 138.295C249.143 137.704 247.271 137.226 245.376 136.862C242.93 136.393 240.462 136.048 237.982 135.825C234.447 135.509 230.898 135.347 227.351 135.338C226.996 135.338 226.658 135.479 226.406 135.728C226.155 135.978 226.014 136.318 226.014 136.671V283.66H220.583V195.764C220.583 195.029 219.987 194.433 219.25 194.433H216.836V167.756C216.836 167.444 216.729 167.144 216.53 166.904L211.466 160.793V150.573C211.466 150.153 211.27 149.757 210.933 149.507L197.348 139.364L193.551 129.233C193.368 128.7 192.873 128.338 192.309 128.33C191.746 128.319 191.238 128.667 191.04 129.194L187.231 139.364L173.645 149.504C173.307 149.754 173.108 150.152 173.108 150.572V160.792L168.048 166.903C167.85 167.141 167.741 167.443 167.741 167.754V194.433H165.325C164.59 194.433 163.993 195.029 163.993 195.764V301.645H157.978V226.717C157.978 225.981 157.382 225.384 156.646 225.384H127.24V219.19C127.24 218.836 127.101 218.496 126.852 218.246C126.601 217.996 126.263 217.856 125.909 217.856H120.505V171.231C120.505 170.495 119.907 169.898 119.171 169.898C118.435 169.898 117.839 170.495 117.839 171.231V217.856H112.662C111.928 217.856 111.331 218.452 111.331 219.19V271.845H103.238C102.502 271.845 101.904 272.442 101.904 273.179V278.194C100.734 277.07 99.344 276.198 97.8232 275.631C95.1283 274.625 92.1653 274.594 89.4506 275.547C86.9474 276.419 84.8008 278.091 83.3486 280.311C82.4497 281.681 81.8686 283.236 81.6461 284.858L78.2142 284.878C77.4801 284.882 76.8881 285.477 76.8881 286.212V288.29C76.8315 289.152 76.6597 290.006 76.3786 290.826L76.3776 290.828C76.157 291.469 75.8263 292.065 75.4001 292.59C74.7167 293.428 73.6936 293.915 72.6129 293.915L72.6944 280.231C72.6944 280.197 72.6983 280.164 72.7043 280.132V280.13C72.7619 279.854 72.9099 279.607 73.1274 279.428L73.1314 279.426C73.1533 279.407 73.1811 279.395 73.2109 279.389C73.6301 279.383 74.0502 279.382 74.4704 279.382C75.1945 279.382 75.7875 278.801 75.8014 278.075L75.8412 276.216C75.8491 275.857 75.7101 275.511 75.4597 275.255C75.2094 274.999 74.8647 274.853 74.5072 274.856L61.606 274.864C60.8719 274.865 60.275 275.463 60.275 276.198V278.094C60.275 278.829 60.87 279.426 61.602 279.428L62.7453 279.432C62.7821 279.432 62.8178 279.437 62.8526 279.445C63.0254 279.494 63.1754 279.6 63.2777 279.748C63.2857 279.758 63.2936 279.77 63.3016 279.779C63.4099 279.925 63.4685 280.104 63.4665 280.287V280.295V280.305V293.145C63.4546 293.248 63.4307 293.349 63.4009 293.448C63.3969 293.456 63.395 293.466 63.393 293.474C63.3671 293.557 63.3145 293.631 63.246 293.685C63.1556 293.736 63.0562 293.762 62.9529 293.769H61.609C60.8719 293.769 60.275 294.365 60.275 295.103V298.649C60.275 299.006 60.417 299.344 60.6693 299.597C60.9226 299.847 61.2633 299.984 61.6179 299.983C61.9288 299.979 62.2377 299.983 62.5477 299.988C62.5606 299.988 62.5725 299.988 62.5864 299.988C62.6162 299.988 62.648 299.991 62.6818 299.995C62.7016 300.047 62.7155 300.099 62.7274 300.154C62.7354 300.187 62.7433 300.221 62.7533 300.253L67.9682 317.854H65.5087C64.7727 317.854 64.1757 318.451 64.1757 319.187V331.296H58.483L58.046 269.965C58.042 269.233 57.445 268.642 56.7139 268.642H28.1075C27.3715 268.642 26.7755 269.238 26.7755 269.976V301.792H20.5454C19.8084 301.792 19.2114 302.39 19.2114 303.126V307.126H14.1981C13.4621 307.126 12.8651 307.723 12.8651 308.458V331.462H1.43803C0.700996 331.462 0.106995 332.058 0.106995 332.795C0.106995 333.532 0.700996 334.128 1.43803 334.128H14.1981C14.9352 334.128 15.5321 333.532 15.5321 332.795V309.79H20.5454C21.2805 309.79 21.8764 309.194 21.8764 308.458V304.46H28.1075C28.4611 304.46 28.7998 304.319 29.0502 304.069C29.2995 303.817 29.4395 303.48 29.4395 303.126V271.307H55.3908L55.8259 332.639C55.8319 333.37 56.4259 333.963 57.1589 333.963H65.5087C65.8624 333.963 66.2021 333.822 66.4524 333.573C66.7007 333.322 66.8428 332.984 66.8428 332.63V320.521H69.7551C70.1753 320.521 70.5707 320.322 70.821 319.984C71.0743 319.648 71.1527 319.213 71.0315 318.808L65.322 299.539C65.2495 299.224 65.1372 298.921 64.9862 298.636L64.9803 298.625C64.6406 297.993 64.0376 297.547 63.3354 297.405C63.2062 297.377 63.0731 297.356 62.94 297.341V296.435H62.9807C62.9937 296.435 63.0076 296.434 63.0215 296.434C63.6035 296.416 64.1727 296.245 64.6684 295.939C64.6843 295.93 64.6982 295.919 64.7141 295.911C65.2971 295.518 65.7292 294.937 65.9368 294.267C66.0372 293.957 66.0997 293.641 66.1276 293.317C66.1315 293.28 66.1315 293.244 66.1315 293.208V280.311C66.1395 279.553 65.9001 278.814 65.4511 278.203C65.2723 277.95 65.0598 277.724 64.8214 277.529L71.257 277.522C70.662 278.075 70.2548 278.802 70.0929 279.596C70.0521 279.794 70.0303 279.991 70.0263 280.192V280.199V280.207L69.9409 295.219C69.9379 295.95 70.522 296.546 71.2521 296.558L72.5493 296.579L72.5593 296.581C74.4605 296.597 76.2663 295.748 77.4662 294.274C78.094 293.504 78.5768 292.63 78.9006 291.691C79.2631 290.634 79.4827 289.53 79.5502 288.414C79.5532 288.386 79.5542 288.358 79.5542 288.33V287.538L82.8877 287.518C83.6139 287.514 84.2019 286.932 84.2138 286.208C84.2386 284.629 84.7115 283.092 85.5776 281.773C86.71 280.045 88.3788 278.742 90.3277 278.063H90.3316C92.4573 277.317 94.7797 277.341 96.8915 278.129C99.1592 278.973 101.006 280.673 102.03 282.866C102.295 283.432 102.917 283.739 103.527 283.602C104.137 283.466 104.572 282.926 104.572 282.302V274.512H112.662C113.4 274.512 113.996 273.916 113.996 273.179V220.521H124.575V226.717C124.575 227.452 125.173 228.048 125.909 228.048H155.312V302.978C155.312 303.715 155.908 304.311 156.646 304.311H165.325C165.678 304.311 166.018 304.172 166.266 303.921C166.519 303.67 166.658 303.333 166.658 302.978V197.097H169.075C169.428 197.097 169.766 196.957 170.016 196.706C170.266 196.457 170.407 196.117 170.407 195.764V168.234L175.469 162.12C175.667 161.882 175.776 161.58 175.776 161.272V151.24L189.139 141.265C189.343 141.113 189.498 140.903 189.589 140.664L192.287 133.463L194.988 140.667C195.077 140.905 195.233 141.113 195.438 141.267L208.802 151.241V161.274C208.802 161.583 208.909 161.884 209.108 162.123L214.171 168.237V195.764C214.171 196.5 214.767 197.097 215.505 197.097H217.917V284.991C217.917 285.345 218.058 285.684 218.307 285.934C218.557 286.184 218.896 286.324 219.25 286.324H227.347C227.701 286.324 228.039 286.184 228.291 285.934C228.538 285.684 228.681 285.345 228.681 284.991V138.014C231.705 138.056 234.73 138.211 237.744 138.481C240.135 138.696 242.516 139.03 244.873 139.481C246.663 139.822 248.429 140.275 250.164 140.833C251.415 141.233 252.639 141.723 253.821 142.297C254.467 154.391 254.91 166.497 255.151 178.604C255.285 185.122 255.381 191.64 255.438 198.161C255.49 203.523 255.522 208.885 255.534 214.248C255.536 214.685 255.751 215.096 256.113 215.345C256.474 215.591 256.935 215.646 257.343 215.491L270.464 210.469L270.444 216.983C270.444 217.074 270.452 217.166 270.471 217.257V264.657C270.471 265.01 270.611 265.349 270.861 265.6C271.111 265.849 271.45 265.989 271.804 265.989H277.902C278.638 265.989 279.236 265.392 279.236 264.657V193.32C279.236 193.286 279.236 193.254 279.232 193.221V171.332L285.824 164.756C286.074 164.506 286.214 164.168 286.214 163.815V157.868L290.787 153.749C291.066 153.497 291.227 153.137 291.227 152.759V146.036L295.159 142.23C295.417 141.98 295.563 141.634 295.563 141.275V134.417L302.875 127.755C303.136 127.519 303.294 127.186 303.308 126.833L304.404 103.366L305.495 126.833C305.513 127.186 305.668 127.519 305.93 127.755L313.241 134.417V141.275C313.241 141.634 313.388 141.98 313.648 142.23L317.578 146.036V152.759C317.578 153.137 317.738 153.497 318.019 153.749L322.59 157.868V163.815C322.59 164.168 322.732 164.506 322.982 164.756L329.57 171.332V284.173C329.57 284.909 330.167 285.506 330.904 285.506H337.74C338.094 285.506 338.432 285.365 338.684 285.115C338.934 284.865 339.074 284.526 339.074 284.173V253.072H345.73C346.467 253.072 347.064 252.476 347.064 251.739V246.384H348.184C348.537 246.384 348.877 246.245 349.127 245.994C349.377 245.744 349.517 245.406 349.517 245.05V222.811H349.797C350.534 222.811 351.13 222.214 351.13 221.477V213.779H374.932V221.477C374.932 222.214 375.529 222.811 376.265 222.811H376.537V245.05C376.537 245.406 376.677 245.744 376.927 245.994C377.179 246.245 377.516 246.384 377.87 246.384H378.992V251.347C378.992 251.699 379.133 252.038 379.383 252.287C379.632 252.539 379.972 252.678 380.326 252.678H385.999C386.353 252.678 386.694 252.539 386.943 252.287C387.193 252.038 387.333 251.699 387.333 251.347V180.226C387.333 179.716 387.042 179.249 386.581 179.025L385.514 177.77H394.021C394.758 177.77 395.355 177.171 395.355 176.436V168.263C395.355 167.967 395.256 167.678 395.073 167.443L395.044 167.407H397.532C398.268 167.407 398.865 166.809 398.865 166.073V166.049L411.189 143.573L423.511 166.049V166.073C423.511 166.426 423.652 166.765 423.9 167.015C424.15 167.265 424.49 167.407 424.844 167.407H427.32C427.148 167.635 427.055 167.915 427.055 168.203V176.436C427.055 177.171 427.651 177.77 428.389 177.77H436.177L435.011 179.142C434.807 179.383 434.694 179.69 434.694 180.006V236.128C434.694 236.864 435.29 237.46 436.027 237.46H453.924V245.245C453.924 245.598 454.064 245.938 454.314 246.188C454.564 246.437 454.903 246.579 455.257 246.579H461.636V303.106C461.636 303.841 462.233 304.438 462.968 304.438H469.32C470.055 304.438 470.651 303.841 470.651 303.106V274.814C470.651 274.462 470.512 274.121 470.26 273.872C470.012 273.622 469.671 273.482 469.32 273.482H469.162V272.471H470.455C470.807 272.471 471.146 272.33 471.395 272.08C471.647 271.832 471.786 271.491 471.786 271.14V258.787C471.786 258.279 471.498 257.814 471.038 257.589L470.521 257.337C470.609 257.26 470.708 257.191 470.812 257.139L470.814 257.137C470.946 257.071 471.083 257.011 471.224 256.961C471.752 256.77 472.103 256.268 472.103 255.706V254.401H472.37C473.087 254.401 473.673 253.835 473.703 253.119C473.808 250.385 474.08 247.656 474.517 244.955V244.954C474.896 242.585 475.465 240.252 476.216 237.974C476.815 236.158 477.579 234.404 478.5 232.728C478.789 232.208 479.093 231.699 479.417 231.199C479.426 231.186 479.437 231.17 479.445 231.154L480.069 230.107C480.302 229.86 480.435 229.532 480.435 229.192V227.23C480.435 226.497 479.838 225.899 479.101 225.899H479.044V225.485H479.492C480.157 225.485 480.724 224.992 480.813 224.328C480.86 223.976 480.943 223.633 481.063 223.298C481.242 222.799 481.437 222.303 481.646 221.814L481.653 221.801C481.733 221.607 481.812 221.413 481.892 221.216H482.053L482.726 222.878V222.882C482.874 223.243 482.99 223.614 483.074 223.996C483.097 224.105 483.116 224.214 483.129 224.323C483.216 224.988 483.781 225.485 484.452 225.485H484.897V225.899H484.842C484.488 225.899 484.149 226.04 483.899 226.287C483.649 226.538 483.509 226.876 483.509 227.23V229.192C483.509 229.532 483.64 229.86 483.874 230.107L484.496 231.154C484.506 231.169 484.514 231.182 484.522 231.195C485.523 232.749 486.367 234.396 487.045 236.113C487.801 238.032 488.405 240.007 488.853 242.018C489.414 244.555 489.805 247.124 490.021 249.713V249.72C490.117 250.851 490.192 251.986 490.241 253.123C490.271 253.837 490.859 254.401 491.572 254.401H491.841V255.706C491.841 256.268 492.191 256.77 492.721 256.962C492.86 257.011 492.997 257.071 493.129 257.137L493.13 257.139C493.272 257.211 493.4 257.306 493.51 257.423L492.804 257.844C492.403 258.085 492.157 258.521 492.157 258.99V271.14C492.157 271.875 492.753 272.471 493.491 272.471H494.779V273.482H494.623C494.269 273.482 493.932 273.622 493.681 273.872C493.43 274.121 493.291 274.462 493.291 274.814V317.553C493.291 318.289 493.887 318.885 494.623 318.885H500.262C500.616 318.885 500.953 318.744 501.206 318.494C501.456 318.244 501.596 317.906 501.596 317.553V220.268H509.129C509.865 220.268 510.463 219.672 510.463 218.934V154.023H512.023C512.761 154.023 513.357 153.427 513.357 152.691V116.808H517.612C517.966 116.808 518.304 116.669 518.555 116.42C518.804 116.168 518.946 115.831 518.946 115.477V93.4703H520.576C521.311 93.4703 521.907 92.8733 521.907 92.1373V57.5659H526.911V92.1373C526.911 92.4909 527.052 92.8306 527.302 93.0799C527.55 93.3302 527.891 93.4703 528.245 93.4703H530.582V115.477C530.582 115.831 530.723 116.168 530.973 116.42C531.225 116.669 531.562 116.808 531.916 116.808H543.883V152.691C543.883 153.427 544.48 154.023 545.218 154.023H551.543V259.979C551.543 260.715 552.139 261.312 552.875 261.312H556.034C556.76 261.312 557.352 260.731 557.368 260.005L560.392 108.777H566.146C566.499 108.777 566.84 108.635 567.088 108.386C567.339 108.136 567.48 107.797 567.48 107.443V71.9114H598.048V107.443C598.048 108.179 598.644 108.777 599.382 108.777H604.771L607.932 266.767C607.948 267.491 608.539 268.073 609.266 268.073H614.961C615.697 268.073 616.293 267.475 616.293 266.739V255.745H617.503C617.857 255.745 618.195 255.603 618.446 255.355C618.695 255.104 618.836 254.766 618.836 254.411V244.401H620.393C621.13 244.401 621.726 243.805 621.726 243.067V234.469H622.868C623.604 234.469 624.202 233.872 624.202 233.136V225.163H625.939C626.675 225.163 627.273 224.566 627.273 223.829V210.86H637.941V223.829C637.941 224.566 638.538 225.163 639.274 225.163H641.011V233.136C641.011 233.872 641.607 234.469 642.345 234.469H643.481V243.067C643.481 243.423 643.623 243.761 643.871 244.011C644.122 244.259 644.461 244.401 644.815 244.401H646.374V254.411C646.374 255.149 646.97 255.745 647.708 255.745H648.919V266.739C648.919 267.093 649.059 267.431 649.31 267.682C649.561 267.931 649.899 268.073 650.252 268.073H652.626C652.98 268.073 653.32 267.931 653.569 267.682C653.819 267.431 653.959 267.093 653.959 266.739V212.557H655.73C656.083 212.557 656.422 212.418 656.671 212.166C656.922 211.917 657.062 211.578 657.062 211.224V192.618L664.46 179.527L686.2 181.168L693.722 194.3V195.197C693.722 195.539 693.853 195.867 694.087 196.115V211.224C694.087 211.961 694.683 212.557 695.419 212.557H696.873V305.012C696.873 305.748 697.469 306.344 698.205 306.344H702.397C703.134 306.344 703.731 305.748 703.731 305.012V299.07H704.999C705.464 299.07 705.894 298.831 706.138 298.432C706.426 297.956 706.72 297.481 707.018 297.008C707.117 296.853 707.181 296.678 707.208 296.496L707.423 295.065C707.432 295 707.438 294.934 707.438 294.87V290.665C707.438 290.408 707.364 290.157 707.224 289.942L706.663 289.069V287.563L707.689 287.403C708.337 287.304 708.818 286.744 708.818 286.088V274.391C708.818 274.084 708.711 273.788 708.519 273.55L708.523 273.548L708.524 273.546C708.686 273.423 708.84 273.29 708.985 273.148C709.191 272.948 709.326 272.687 709.372 272.405C709.432 272.02 709.585 271.659 709.818 271.348C710.064 271.045 710.382 270.805 710.74 270.654C711.232 270.443 711.551 269.961 711.551 269.428V266.735L713.525 249.633L715.511 266.735V269.428C715.511 269.961 715.829 270.443 716.322 270.654C716.679 270.805 716.995 271.045 717.242 271.348C717.474 271.659 717.627 272.02 717.689 272.405C717.734 272.687 717.869 272.948 718.074 273.148C718.221 273.29 718.373 273.423 718.537 273.546L718.539 273.548L718.541 273.55C718.348 273.788 718.243 274.084 718.243 274.391V286.088C718.243 286.744 718.724 287.304 719.373 287.403L720.399 287.563V289.069L719.835 289.942C719.697 290.157 719.623 290.408 719.623 290.665V294.87C719.623 294.934 719.627 295 719.636 295.065L719.851 296.496C719.878 296.678 719.943 296.853 720.042 297.008C720.339 297.481 720.634 297.956 720.924 298.432C721.165 298.831 721.596 299.07 722.063 299.07H723.331V305.012C723.331 305.366 723.471 305.704 723.721 305.954C723.97 306.202 724.31 306.344 724.661 306.344H726.26V316.235C726.26 316.972 726.856 317.568 727.591 317.568H732.887C733.241 317.568 733.58 317.426 733.83 317.176C734.079 316.926 734.221 316.588 734.221 316.235V203.07H736.511C737.246 203.07 737.842 202.473 737.842 201.736V193.906C737.842 193.553 737.702 193.213 737.451 192.965L733.403 188.914L740.777 181.539L746.288 187.05C746.536 187.298 746.877 187.441 747.228 187.441H765.999C766.353 187.441 766.692 187.298 766.942 187.05L772.453 181.539L779.827 188.914L775.771 192.969C775.521 193.217 775.381 193.557 775.381 193.909V201.736C775.381 202.09 775.521 202.431 775.771 202.679C776.024 202.929 776.362 203.07 776.715 203.07H779.009V327.883C779.009 328.237 779.149 328.576 779.397 328.826C779.648 329.075 779.986 329.217 780.34 329.217H787.419C787.773 329.217 788.112 329.075 788.362 328.826C788.612 328.576 788.752 328.237 788.752 327.883V211.09H791.043C791.779 211.09 792.376 210.494 792.376 209.758V201.927C792.376 201.574 792.235 201.235 791.985 200.985L787.934 196.933L795.308 189.558L800.819 195.069C801.069 195.32 801.409 195.46 801.763 195.46H820.53C820.884 195.46 821.224 195.32 821.474 195.069L826.985 189.558L834.359 196.933L830.303 200.988C830.054 201.237 829.913 201.578 829.913 201.931V209.758C829.913 210.109 830.054 210.45 830.303 210.699C830.555 210.949 830.892 211.09 831.246 211.09H833.541V331.388C833.541 332.124 834.138 332.722 834.874 332.722H842.643C843.379 332.722 843.976 332.124 843.976 331.388V300.484H852.249C852.984 300.484 853.58 299.888 853.58 299.152V294.984H862.645V299.152C862.645 299.505 862.784 299.843 863.035 300.093C863.285 300.345 863.623 300.484 863.977 300.484H866.385V309.289C866.385 309.641 866.525 309.981 866.777 310.233C867.025 310.48 867.365 310.62 867.719 310.62H869.949V342.493C869.949 342.848 870.093 343.187 870.343 343.438C870.593 343.686 870.934 343.825 871.287 343.825L884.783 343.795C885.518 343.792 886.114 343.196 886.114 342.46C886.104 341.722 885.508 341.127 884.773 341.13L872.618 341.157V309.289C872.618 308.936 872.477 308.596 872.226 308.347C871.976 308.096 871.637 307.956 871.284 307.956H869.051V299.152C869.051 298.798 868.911 298.458 868.66 298.208C868.411 297.96 868.07 297.818 867.719 297.818H865.311V293.65C865.311 293.299 865.169 292.958 864.919 292.709C864.669 292.459 864.331 292.319 863.977 292.319H852.249C851.895 292.319 851.555 292.459 851.306 292.709C851.056 292.958 850.916 293.299 850.916 293.65V297.818H842.643C842.291 297.818 841.95 297.96 841.702 298.208C841.451 298.458 841.31 298.798 841.31 299.152V330.057H836.205V209.758C836.205 209.022 835.608 208.424 834.874 208.424H832.58V202.483L837.186 197.875C837.708 197.355 837.708 196.512 837.186 195.991L827.926 186.73C827.406 186.212 826.562 186.212 826.041 186.73L819.978 192.793H802.315L796.252 186.73C795.731 186.212 794.887 186.212 794.366 186.73L785.107 195.991C784.857 196.241 784.715 196.579 784.715 196.933C784.715 197.287 784.857 197.625 785.107 197.875L789.709 202.479V208.424H787.419C787.065 208.424 786.728 208.565 786.475 208.816C786.228 209.064 786.085 209.405 786.085 209.758V326.549H781.674V201.736C781.674 201.001 781.076 200.402 780.34 200.402H778.048V194.461L782.653 189.856C783.174 189.336 783.174 188.493 782.653 187.97L773.395 178.711C773.144 178.46 772.806 178.321 772.453 178.321C772.098 178.321 771.758 178.46 771.51 178.711L765.447 184.774H747.783L741.72 178.711C741.469 178.46 741.131 178.321 740.777 178.321C740.423 178.321 740.083 178.46 739.833 178.711L730.575 187.97C730.053 188.493 730.053 189.336 730.575 189.856L735.177 194.458V200.402H732.887C732.151 200.402 731.553 201.001 731.553 201.736V314.902H728.925V305.012C728.925 304.274 728.327 303.678 727.591 303.678H725.995V297.739C725.995 297.386 725.854 297.046 725.604 296.797C725.355 296.546 725.015 296.406 724.661 296.406H722.807L722.627 296.117L722.445 295.826L722.287 294.77V291.055L722.852 290.182C722.99 289.97 723.064 289.717 723.064 289.462V286.421C723.064 285.763 722.586 285.204 721.937 285.103L720.911 284.944V275.15L721.031 275.076C721.286 274.924 721.484 274.693 721.592 274.415L721.802 273.876C722.008 273.347 721.856 272.745 721.423 272.378C721.264 272.242 721.102 272.114 720.933 271.992L720.924 271.985L720.916 271.98C720.678 271.813 720.446 271.641 720.212 271.47C720.042 270.838 719.752 270.243 719.355 269.723C719.349 269.714 719.341 269.703 719.333 269.695C719.005 269.283 718.614 268.928 718.175 268.637V266.659C718.175 266.607 718.173 266.556 718.167 266.505L715.612 244.505V242.979C716.052 242.36 716.169 241.571 715.932 240.852C715.928 240.841 715.924 240.829 715.918 240.814C715.727 240.278 715.35 239.828 714.86 239.537ZM100.442 304.959C100.473 305.066 100.503 305.176 100.528 305.287L100.532 305.299C100.573 305.467 100.606 305.64 100.631 305.811C100.728 306.444 101.263 306.92 101.904 306.941V309.335C101.256 309.356 100.72 309.84 100.628 310.48C100.508 311.34 100.179 312.158 99.6747 312.861C98.8791 313.933 97.6682 314.614 96.3412 314.739L96.3312 314.74C96.1922 314.753 96.0511 314.761 95.9111 314.765H95.6369V310.695C95.7869 310.734 95.919 310.817 96.0174 310.937C96.0819 311.041 96.1147 311.164 96.1107 311.287C96.0978 311.649 96.2319 312.001 96.4832 312.261C96.7365 312.522 97.0822 312.67 97.4438 312.67H98.453C99.189 312.67 99.785 312.073 99.785 311.336V304.943C99.785 304.207 99.189 303.61 98.453 303.61H97.4438C97.0822 303.61 96.7365 303.758 96.4832 304.019C96.2319 304.278 96.0978 304.631 96.1107 304.992C96.1147 305.117 96.0819 305.239 96.0174 305.342C95.919 305.462 95.7869 305.549 95.6369 305.584V301.514H95.918C97.1775 301.526 98.3824 302.037 99.2655 302.935C99.8098 303.507 100.215 304.202 100.442 304.959ZM73.5178 304.672L72.309 301.051L74.7267 301.048L73.5178 304.672ZM82.2182 299.979H86.0455C86.0862 299.979 86.1249 299.987 86.1617 299.999C86.1696 300.043 86.1736 300.09 86.1736 300.134C86.1716 300.146 86.1716 300.155 86.1716 300.166V315.721C86.1637 315.955 86.0584 316.177 85.8796 316.328L83.9635 316.322C83.6099 316.32 83.2692 316.46 83.0189 316.71C82.7675 316.96 82.6255 317.3 82.6255 317.653V317.854H75.8292L81.4315 300.59L81.4335 300.578C81.4832 300.425 81.5567 300.286 81.656 300.163C81.7534 300.067 81.8805 300.006 82.0156 299.992C82.0255 299.992 82.0365 299.991 82.0474 299.991C82.105 299.983 82.1606 299.979 82.2182 299.979ZM103.019 304.277C102.677 303.081 102.049 301.987 101.189 301.087L101.181 301.081L101.176 301.073C99.7929 299.666 97.9086 298.866 95.9349 298.85H95.9299H94.3049C93.5698 298.85 92.9719 299.447 92.9719 300.183V306.933C92.9719 307.45 93.2698 307.919 93.7367 308.14C93.2698 308.36 92.9719 308.829 92.9719 309.345V316.099C92.9719 316.834 93.5698 317.43 94.3049 317.43H95.923H95.9468C96.1624 317.426 96.3799 317.414 96.5955 317.393C98.6774 317.196 100.579 316.123 101.822 314.442L101.826 314.435L101.832 314.429C102.363 313.692 102.765 312.869 103.022 311.999H103.238C103.974 311.999 104.572 311.402 104.572 310.666V305.61C104.572 305.256 104.431 304.918 104.18 304.668C103.929 304.416 103.591 304.277 103.238 304.277H103.019ZM73.339 309.681H73.6966C74.2698 309.681 74.7783 309.312 74.9601 308.768L77.2616 301.871C77.4245 301.485 77.5219 301.073 77.5457 300.654C77.5825 300.107 77.4086 299.569 77.063 299.145C77.0431 299.12 77.0222 299.094 76.9984 299.07C76.6855 298.742 76.2782 298.52 75.8303 298.438C75.6385 298.399 75.4419 298.381 75.2432 298.381L71.8093 298.383C71.3951 298.374 70.9829 298.461 70.6094 298.644C70.5905 298.653 70.5707 298.663 70.5508 298.675C69.9339 299.015 69.5326 299.652 69.4939 300.358C69.473 300.718 69.5138 301.077 69.6191 301.421C69.6608 301.571 69.7114 301.718 69.7701 301.862L72.0755 308.768C72.2553 309.312 72.7659 309.681 73.339 309.681ZM104.572 290.784C104.572 290.157 104.136 289.616 103.525 289.481C102.915 289.347 102.291 289.654 102.029 290.221C101.9 290.499 101.759 290.769 101.601 291.031C100.475 292.908 98.7241 294.326 96.6551 295.037C96.0392 295.25 95.6657 295.876 95.776 296.519C95.8823 297.161 96.4385 297.631 97.0901 297.631H103.238C103.591 297.631 103.929 297.491 104.18 297.242C104.431 296.991 104.572 296.654 104.572 296.3V290.784ZM82.5639 297.312H82.1964C82.0484 297.314 81.9014 297.324 81.7534 297.341C80.9548 297.419 80.2118 297.79 79.6714 298.383C79.6605 298.395 79.6485 298.409 79.6366 298.422C79.3029 298.819 79.0496 299.277 78.8936 299.773L72.7271 318.776C72.596 319.181 72.6665 319.627 72.9169 319.97C73.1682 320.317 73.5685 320.521 73.9956 320.521H83.9595C84.3131 320.521 84.6509 320.381 84.9022 320.13C85.1515 319.878 85.2935 319.54 85.2935 319.187V318.992L85.962 318.995C85.9948 318.995 86.0296 318.992 86.0624 318.991C86.6007 318.951 87.1153 318.752 87.5394 318.415L87.5464 318.41L87.5543 318.403C88.346 317.754 88.8178 316.79 88.8387 315.766C88.8387 315.757 88.8387 315.746 88.8387 315.738V300.179C88.8426 299.896 88.8139 299.614 88.7473 299.338C88.5933 298.665 88.1712 298.084 87.5792 297.726C87.5643 297.718 87.5514 297.71 87.5384 297.702C87.2216 297.527 86.8769 297.407 86.5193 297.352H89.235C89.8678 297.352 90.4151 296.907 90.5402 296.285C90.6674 295.665 90.3406 295.041 89.7595 294.793C88.5208 294.263 87.4113 293.471 86.5074 292.474V292.473C85.6134 291.488 84.9528 290.315 84.5744 289.042C84.4055 288.477 83.888 288.087 83.296 288.087H82.8798C82.1438 288.087 81.5478 288.684 81.5478 289.421V296.018C81.5478 296.633 81.9679 297.166 82.5639 297.312ZM90.4359 290.431C90.1379 290.423 89.8747 290.245 89.7535 289.973L89.7495 289.963L89.7456 289.954C89.5807 289.592 89.6492 289.168 89.9164 288.874L96.0968 282.326L96.1048 282.317C96.2359 282.174 96.4226 282.093 96.6173 282.093C96.812 282.091 96.9987 282.172 97.1309 282.314C97.1398 282.323 97.1477 282.331 97.1557 282.339C97.4358 282.667 97.4726 283.136 97.2471 283.502C97.2143 283.551 97.1785 283.597 97.1378 283.64L90.9525 290.196L90.9485 290.2C90.8174 290.344 90.6306 290.426 90.4359 290.431ZM90.4439 293.096C91.3726 293.09 92.2596 292.701 92.8954 292.024L99.0777 285.472C99.2397 285.298 99.3847 285.111 99.5098 284.909C100.378 283.51 100.203 281.702 99.0817 280.497C99.0648 280.477 99.047 280.46 99.0271 280.443C98.3834 279.782 97.4994 279.414 96.5786 279.426C95.6568 279.437 94.7797 279.827 94.1519 280.501L87.9715 287.051L87.9675 287.057L87.9616 287.061C86.9643 288.14 86.71 289.709 87.3169 291.05C87.8583 292.282 89.0731 293.083 90.42 293.096C90.428 293.096 90.4359 293.096 90.4439 293.096ZM372.82 239.721H372.259V227.17H372.82V239.721ZM365.233 239.721H360.986V227.17H365.233V239.721ZM353.955 239.721H353.37V227.17H353.955V239.721ZM375.486 241.053V225.837C375.486 225.484 375.346 225.146 375.096 224.894C374.846 224.643 374.507 224.503 374.153 224.503H370.925C370.192 224.503 369.594 225.1 369.594 225.837V241.053C369.594 241.79 370.192 242.386 370.925 242.386H374.153C374.889 242.386 375.486 241.79 375.486 241.053ZM367.897 241.053V225.837C367.897 225.484 367.757 225.146 367.507 224.894C367.257 224.643 366.918 224.503 366.566 224.503H359.652C359.298 224.503 358.96 224.643 358.709 224.894C358.461 225.146 358.318 225.484 358.318 225.837V241.053C358.318 241.79 358.916 242.386 359.652 242.386H366.566C367.3 242.386 367.897 241.79 367.897 241.053ZM356.621 241.053V225.837C356.621 225.1 356.025 224.503 355.288 224.503H352.036C351.3 224.503 350.703 225.1 350.703 225.837V241.053C350.703 241.79 351.3 242.386 352.036 242.386H355.288C355.643 242.386 355.981 242.247 356.231 241.994C356.482 241.746 356.621 241.406 356.621 241.053ZM825.265 197.466V197.051H827.672V197.466H825.265ZM794.829 198.252V196.265H796.817V198.252H794.829ZM823.931 200.131H829.005C829.742 200.131 830.339 199.534 830.339 198.799V195.717C830.339 195.363 830.199 195.025 829.949 194.774C829.699 194.524 829.359 194.383 829.005 194.383H823.931C823.195 194.383 822.599 194.981 822.599 195.717V198.799C822.599 199.534 823.195 200.131 823.931 200.131ZM793.498 200.917H798.151C798.504 200.917 798.842 200.776 799.093 200.526C799.343 200.277 799.484 199.937 799.484 199.583V194.931C799.484 194.578 799.343 194.239 799.093 193.989C798.842 193.739 798.504 193.598 798.151 193.598H793.498C792.76 193.598 792.164 194.195 792.164 194.931V199.583C792.164 200.319 792.76 200.917 793.498 200.917ZM773.14 189.446H770.733V189.029H773.14V189.446ZM742.285 190.23H740.297V188.244H742.285V190.23ZM774.474 192.11C774.828 192.11 775.166 191.971 775.417 191.72C775.666 191.471 775.807 191.132 775.807 190.778V187.696C775.807 186.96 775.21 186.364 774.474 186.364H769.4C768.663 186.364 768.067 186.96 768.067 187.696V190.778C768.067 191.132 768.206 191.471 768.459 191.72C768.709 191.971 769.047 192.11 769.4 192.11H774.474ZM743.616 192.896C743.972 192.896 744.31 192.757 744.56 192.506C744.811 192.255 744.95 191.918 744.95 191.562V186.911C744.95 186.558 744.811 186.22 744.56 185.97C744.31 185.717 743.972 185.578 743.616 185.578H738.963C738.61 185.578 738.271 185.717 738.021 185.97C737.771 186.22 737.632 186.558 737.632 186.911V191.562C737.632 191.918 737.771 192.255 738.021 192.506C738.271 192.757 738.61 192.896 738.963 192.896H743.616Z" fill="#DED9CF"/>
<path d="M95.923 316.099H94.3049V309.345H95.5972C96.4703 309.412 97.4616 310.043 97.4437 311.336H98.4529V307.878V304.943H97.4437C97.4616 306.236 96.4703 306.868 95.5972 306.933H94.3049V300.183H95.923C98.8364 300.232 101.431 302.215 101.949 305.61H103.238V310.666H101.949C101.431 314.067 98.8364 316.046 95.923 316.099Z" stroke="#DED9CF" stroke-width="0.194375"/>
<path d="M1.43805 332.795H2.04298H14.1982V308.458H20.5454V303.126H28.1075V269.976H56.7139L57.159 332.63H65.5087V319.187H69.7552L64.0297 299.875C63.836 299.078 63.537 298.746 62.8059 298.667C62.654 298.649 61.7739 298.645 61.609 298.649V295.103H62.9808C64.2959 295.024 64.7201 294.086 64.8005 293.208V280.305C64.8353 279.276 63.9542 278.107 62.7533 278.098L61.609 278.094V276.198C65.329 276.194 70.7872 276.191 74.5072 276.187C74.5072 276.751 74.4704 277.484 74.4704 278.048C74.2718 278.05 73.3072 278.05 73.1354 278.058C72.1381 278.106 71.3723 279.309 71.3604 280.215L71.2739 295.227L72.5712 295.248C75.6505 295.254 77.9073 292.708 78.2222 288.33V286.212L82.8798 286.187C82.9533 280.752 87.6894 276.187 93.5242 276.187C97.85 276.187 101.572 278.697 103.238 282.302V273.179H112.662V219.19H118.245H120.095H125.909V226.717H156.646V302.978H165.325V195.764H169.075V167.754L174.442 161.272V150.572L188.341 140.198L192.287 129.663L196.236 140.2L210.134 150.573V161.274L215.505 167.756V195.764H219.25V284.991H227.347V136.671C239.364 136.746 248.912 138.176 255.111 141.455C256.375 164.514 256.694 185.302 256.832 205.878C256.845 207.855 256.856 210.711 256.868 214.244L271.803 208.528L271.778 216.987H271.804V264.657H277.902V193.32H277.901V170.778L284.882 163.815V157.276L289.894 152.759V145.472L294.229 141.275V133.829L301.977 126.77L304.404 74.7364L306.828 126.77L314.575 133.829V141.275L318.911 145.472V152.759L323.924 157.276V163.815L330.904 170.778V177.616V284.173H337.74V251.739H345.73V245.05H348.184V221.477H349.797V212.447H376.265V221.477H377.87V245.05H380.326V251.347H385.999V180.226H385.85L382.633 176.436H394.021V168.263L392.315 166.073H397.532V165.707L411.168 140.842L411.165 140.755L411.19 140.8L411.214 140.755L411.212 140.842L424.844 165.707V166.073H430.049L428.389 168.203V176.436H439.056L436.027 180.006V236.128H455.257V245.245H462.968V303.106H469.32V274.814H467.828V271.14H470.455V258.787L468.65 257.906C469.221 256.57 469.658 256.122 470.771 255.706V253.067H472.37C472.775 243.595 474.704 236.003 478.3 230.475L479.021 229.262C479.036 229.238 479.055 229.215 479.069 229.192H479.101V227.23H477.712V224.153H479.492C479.643 222.966 480.145 222.033 480.992 219.883H482.954C483.797 222.033 484.298 222.965 484.452 224.153H486.231V227.23H484.842V229.192H484.874C484.888 229.215 484.905 229.238 484.921 229.262L485.643 230.475C489.239 236.003 491.165 243.595 491.572 253.067H493.173V255.706C494.285 256.122 494.721 256.57 495.295 257.906L493.491 258.99V271.14H496.113V274.814H494.623V317.553H500.262V218.934H509.129V152.691H512.023V115.477H517.612V92.1373H520.576V56.2319H528.245V92.1373H531.916V115.477H545.218V152.691H552.875V259.979H556.034L559.085 107.443H566.146V70.5804H599.382V107.443H606.08L609.266 266.739H614.961V254.411H617.503V243.067H620.393V233.136H622.868V223.829H625.939V209.527H639.274V223.829H642.345V233.136H644.815V243.067H647.708V254.411H650.252V266.739H652.626V211.224H655.73V192.184L655.777 192.188V192.184L663.716 178.135L687.007 179.893L695.054 193.944V195.197L695.419 195.224V211.224H698.205V305.012H702.397V297.739H704.999C705.298 297.257 705.595 296.758 705.89 296.3L706.104 294.87V290.665L705.329 289.462V286.421L707.485 286.088V274.391L706.711 273.93L706.501 273.393C707.04 272.929 707.646 272.599 708.055 272.193C708.288 270.896 709.001 269.972 710.217 269.428V266.659L712.768 244.563V242.446C712.505 242.243 712.339 241.941 712.339 241.603C712.339 241.14 712.647 240.746 713.087 240.584H713.971C714.411 240.743 714.721 241.138 714.721 241.603C714.721 241.945 714.548 242.252 714.28 242.454V244.583L716.842 266.659V269.428C718.06 269.972 718.774 270.896 719.005 272.193C719.414 272.599 720.022 272.929 720.561 273.393L720.351 273.93L719.577 274.391V286.088L721.733 286.421V289.462L720.956 290.665V294.87L721.169 296.3C721.465 296.758 721.763 297.257 722.063 297.739H724.661V305.012H727.591V316.235H732.887V201.736H736.511V193.906L731.517 188.914L740.777 179.653L747.228 186.107H765.999L772.453 179.653L781.71 188.914L776.715 193.909V201.736H780.34V327.883H787.419V209.758H791.043V201.927L786.049 196.933L795.308 187.674L801.763 194.127H820.53L826.985 187.674L836.243 196.933L831.246 201.931V209.758H834.874V331.388H842.643V309.289V299.152H852.249V293.65H863.977V299.152H867.719V309.289H871.284V342.493L884.773 342.461" stroke="#DED9CF" stroke-width="0.194375"/>
<path d="M103.238 290.784V296.3H97.0901C99.8287 295.35 102.053 293.341 103.238 290.784Z" stroke="#DED9CF" stroke-width="0.194375"/>
<path d="M89.235 296.018H82.8798V289.421H83.296C84.1711 292.378 86.3713 294.791 89.235 296.018Z" stroke="#DED9CF" stroke-width="0.194375"/>
<path d="M374.153 241.053H370.925V225.837H374.153V241.053Z" stroke="#DED9CF" stroke-width="0.194375"/>
<path d="M366.566 241.053H359.652V225.837H366.566V241.053Z" stroke="#DED9CF" stroke-width="0.194375"/>
<path d="M355.288 241.053H352.036V225.837H355.288V241.053Z" stroke="#DED9CF" stroke-width="0.194375"/>
<path d="M823.931 198.799H829.005V195.717H823.931V198.799Z" stroke="#DED9CF" stroke-width="0.194375"/>
<path d="M793.498 199.583H798.151V194.931H793.498V199.583Z" stroke="#DED9CF" stroke-width="0.194375"/>
<path d="M774.474 190.778H769.4V187.696H774.474V190.778Z" stroke="#DED9CF" stroke-width="0.194375"/>
<path d="M743.616 191.562H738.963V186.911H743.616V191.562Z" stroke="#DED9CF" stroke-width="0.194375"/>
<path d="M713.528 240.584V235.19" stroke="#DED9CF" stroke-width="0.19503"/>
<path d="M481.972 219.884V206.957" stroke="#DED9CF" stroke-width="0.19503"/>
<path d="M119.171 219.19V171.231" stroke="#DED9CF" stroke-width="0.19503"/>
<path d="M87.5047 315.738C87.4848 316.632 86.8481 317.608 85.967 317.661L83.9595 317.653V319.187H73.9956L80.1641 300.179C80.3518 299.626 80.6389 299.172 81.1216 298.906C81.4077 298.744 81.7633 298.651 82.2103 298.645H86.0584C86.9037 298.683 87.5186 299.122 87.5047 300.166V315.738Z" stroke="#DED9CF" stroke-width="0.194375"/>
<path d="M90.435 291.765C89.8946 291.765 89.3552 291.549 88.945 291.118C88.2497 290.385 88.1404 289.267 88.6162 288.412C88.7066 288.253 88.8139 288.103 88.941 287.967L95.1254 281.411C95.9478 280.542 97.2829 280.538 98.1053 281.407V281.404C98.9278 282.273 98.9308 283.682 98.1083 284.555L91.9229 291.112C91.5117 291.545 90.9723 291.763 90.435 291.765Z" stroke="#DED9CF" stroke-width="0.194375"/>
<path d="M73.339 308.347H73.6966L76.016 301.394C76.4193 300.416 76.2326 299.714 75.2502 299.714H74.1943L72.5871 299.717H71.7885C70.8031 299.717 70.6164 300.416 71.0196 301.398L73.339 308.347Z" stroke="#DED9CF" stroke-width="0.194375"/>
</svg>
